<svg xmlns="http://www.w3.org/2000/svg" width="38" height="38" viewBox="0 0 38 38">
  <g id="bookmark_group" data-name="bookmark group" transform="translate(-303 -284)">
    <circle id="Ellipse_8" data-name="Ellipse 8" cx="19" cy="19" r="19" transform="translate(303 284)" fill="#fff"/>
    <g id="Iconly_Bold_Bookmark" data-name="Iconly/Bold/Bookmark" transform="translate(310 291)">
      <g id="Bookmark" transform="translate(4 2)">
        <path id="Path_8" data-name="Path 8" d="M11.07,0c2.71,0,4.9,1.07,4.93,3.79h0V18.97a1.019,1.019,0,0,1-.74.99,1,1,0,0,1-.79-.1h0L7.99,16.62,1.5,19.86a1.063,1.063,0,0,1-.49.13A1.016,1.016,0,0,1,0,18.97H0V3.79C0,1.07,2.2,0,4.9,0h6.17Zm.68,6.04H4.22a.79.79,0,0,0,0,1.58h7.53a.79.79,0,0,0,0-1.58Z"/>
      </g>
    </g>
  </g>
</svg>
