<svg xmlns="http://www.w3.org/2000/svg" xmlns:xlink="http://www.w3.org/1999/xlink" width="877.259" height="877.121" viewBox="0 0 877.259 877.121">
  <defs>
    <clipPath id="clip-path">
      <path id="Path_9" data-name="Path 9" d="M812.8,983.3l12.211,10.556s0,21.755,0,21.755l-7.975,30.781-15.292,15.923-22.353,14.232-25.4,9.446,17.936,5.471,29.813,10.777,33.522,16.339,18.686,12.552,17.99,26.626,6.455,28.328v25.245l-12,20.392,12,14.274,5.281,22.1-5.281,26.312-17.6,22.461-25.529,9.925-33.522-4.2-22.353-5.722-25.4-17.73-18.026-16.257-17.8-19.2,6.875,23.4,10.927,35.509,4.2,36.516-4.2,38.991-17.8,20.975-20.68,10.815H677.014l-23.26,16.707-34.8,4.427-32.493-9.467-17.973-16.769-11.4-21.494-11.148-31.75s0-29.645,0-29.645v-47.488l4.283-20.225,6.864-22.278v-25.793l-6.864,25.793-8.961,30.977-9.4,30-9.647,29.01-15,29.645-19.492,16.874-31.092,4.884-29.317-4.884-17.491-21-6.416-21.731-5.572-12.754-22.577-20.044-8.889-25.8-4.637-18.986,4.637-27.506,8.889-14.479,7.084-18.406,15.492-16.462,11.988-18.616,17.491-14.869,17.06-13.359,12.257-13.267Z" transform="translate(1018 109)" fill="none" stroke="#707070" stroke-width="1"/>
    </clipPath>
  </defs>
  <g id="bottom_flower" data-name="bottom flower" transform="translate(-801.149 -645.331)">
    <g id="Flower_bottom_right" data-name="Flower bottom right" transform="matrix(-0.875, 0.485, -0.485, -0.875, 3220.706, 1340.847)" clip-path="url(#clip-path)">
      <g id="Rectangle_11" data-name="Rectangle 11" transform="translate(1241.81 977.343)" fill="#ebf9fa" stroke="#707070" stroke-width="1">
        <rect width="748.207" height="665.49" stroke="none"/>
        <rect x="0.5" y="0.5" width="747.207" height="664.49" fill="none"/>
      </g>
    </g>
    <g id="Flower_bottom_right-2" data-name="Flower bottom right" transform="matrix(0.875, -0.485, 0.485, 0.875, -741.149, 826.936)" clip-path="url(#clip-path)">
      <g id="Rectangle_14" data-name="Rectangle 14" transform="translate(1241.81 977.343)" fill="#ebf9fa" stroke="#707070" stroke-width="1">
        <rect width="748.207" height="665.49" stroke="none"/>
        <rect x="0.5" y="0.5" width="747.207" height="664.49" fill="none"/>
      </g>
    </g>
  </g>
</svg>
