<svg xmlns="http://www.w3.org/2000/svg" width="38" height="38" viewBox="0 0 38 38">
  <g id="speaker_group" data-name="speaker group" transform="translate(-34 -284)">
    <circle id="Ellipse_6" data-name="Ellipse 6" cx="19" cy="19" r="19" transform="translate(34 284)" fill="#fff"/>
    <g id="Iconly_Bold_Volume-Up" data-name="Iconly/Bold/Volume-Up" transform="translate(41 291)">
      <g id="Volume-Up" transform="translate(1 3)">
        <path id="Path_7" data-name="Path 7" d="M9.758,0a2.547,2.547,0,0,1,2.368,1.956,10.165,10.165,0,0,1,.232,1.494h0l.047.442a96.5,96.5,0,0,1,0,10.215h0l-.047.458a9.045,9.045,0,0,1-.224,1.453A2.539,2.539,0,0,1,9.782,18h-.1a2.694,2.694,0,0,1-1.588-.675h0L4.563,14.383H2.752A2.644,2.644,0,0,1,.145,11.8a27.9,27.9,0,0,1,0-5.677,2.7,2.7,0,0,1,2.607-2.51H4.563L8.022.719A3.014,3.014,0,0,1,9.758,0ZM18.29.221a.905.905,0,0,1,1.277.236A15.319,15.319,0,0,1,22,9a15.317,15.317,0,0,1-2.433,8.544.912.912,0,0,1-.754.4.9.9,0,0,1-.522-.167.957.957,0,0,1-.231-1.308A13.408,13.408,0,0,0,20.165,9a13.407,13.407,0,0,0-2.1-7.471A.958.958,0,0,1,18.29.221ZM15.128,3.258a.907.907,0,0,1,1.278.236A9.876,9.876,0,0,1,17.978,9a9.876,9.876,0,0,1-1.572,5.505.9.9,0,0,1-1.277.236.956.956,0,0,1-.23-1.308A7.959,7.959,0,0,0,16.143,9,7.956,7.956,0,0,0,14.9,4.566.957.957,0,0,1,15.128,3.258Z"/>
      </g>
    </g>
  </g>
</svg>
